<?xml version="1.0" standalone="no"?>
<!DOCTYPE svg PUBLIC "-//W3C//DTD SVG 20010904//EN"
 "http://www.w3.org/TR/2001/REC-SVG-20010904/DTD/svg10.dtd">
<svg version="1.0" xmlns="http://www.w3.org/2000/svg"
 width="300.000000pt" height="300.000000pt" viewBox="0 0 300.000000 300.000000"
 preserveAspectRatio="xMidYMid meet">
<metadata>
Created by potrace 1.10, written by Peter Selinger 2001-2011
</metadata>
<g transform="translate(0.000000,300.000000) scale(0.100000,-0.100000)"
fill="#000000" stroke="none">
<path d="M1886 2885 c-21 -7 -55 -29 -75 -49 -20 -19 -79 -68 -131 -108 -103
-80 -154 -144 -165 -208 -4 -27 -21 -57 -46 -86 -21 -25 -39 -52 -39 -59 0 -8
16 -25 36 -39 20 -13 50 -48 66 -77 l30 -52 -21 -38 c-17 -30 -20 -43 -11 -59
11 -20 78 -60 103 -60 7 0 23 -18 36 -40 l22 -39 -50 -26 c-54 -27 -91 -61
-91 -83 0 -8 18 -34 40 -59 45 -52 45 -49 26 -93 -9 -23 -27 -40 -57 -54 -53
-26 -59 -48 -24 -99 14 -21 25 -49 25 -62 0 -22 -5 -25 -33 -25 -77 0 -96 -52
-51 -141 14 -28 22 -54 19 -57 -4 -4 -38 -7 -77 -8 -80 -1 -104 -17 -94 -67 3
-15 9 -40 12 -56 5 -24 1 -32 -20 -46 -26 -17 -28 -17 -76 9 -29 16 -62 26
-77 24 -27 -3 -31 -9 -53 -95 -14 -54 -30 -55 -87 -2 -35 32 -50 40 -75 37
-29 -3 -34 -9 -53 -58 -23 -60 -55 -81 -55 -37 0 14 -15 47 -32 73 -27 40 -38
49 -63 49 -22 0 -35 -8 -53 -35 -13 -19 -28 -37 -33 -38 -5 -2 -56 22 -112 54
-88 49 -123 77 -257 209 -165 163 -196 187 -206 160 -10 -25 2 -66 45 -156 90
-188 221 -339 390 -451 79 -52 314 -176 519 -275 3 -1 -7 -42 -24 -101 -3 -10
-10 -9 -31 6 -16 10 -36 22 -46 25 -22 8 -57 -9 -57 -27 0 -8 36 -86 80 -175
63 -126 92 -174 134 -217 48 -50 56 -55 75 -44 19 10 21 17 15 56 -6 43 -6 44
21 44 15 0 48 -12 74 -27 62 -34 86 -27 78 24 -4 20 -17 52 -31 72 -14 20 -39
56 -55 80 -17 24 -31 49 -31 56 0 6 15 18 33 27 18 8 66 41 107 72 58 43 83
56 110 56 113 1 278 68 406 165 82 62 104 74 157 84 34 7 110 23 169 37 88 21
113 23 145 15 58 -16 76 -41 84 -121 14 -128 47 -159 102 -94 92 110 198 202
289 250 79 42 93 53 93 74 0 24 -3 25 -72 28 -83 3 -86 8 -52 73 25 50 22 83
-8 87 -27 4 -63 -15 -148 -76 -120 -86 -106 -84 -161 -23 -51 56 -169 150
-246 195 -27 15 -50 31 -53 36 -3 4 4 43 15 86 11 44 25 119 31 168 12 88 12
88 67 147 62 66 86 72 122 34 21 -23 22 -27 10 -70 -14 -51 -4 -75 34 -75 25
0 136 102 136 125 0 19 -73 99 -124 137 -33 23 -49 28 -99 28 -49 0 -66 -5
-93 -25 -18 -14 -34 -25 -36 -25 -2 0 -4 30 -5 68 -1 37 -10 101 -19 142 -30
135 -30 146 4 164 16 8 112 45 213 82 218 78 285 109 313 147 17 23 21 46 24
150 4 120 4 122 -21 148 -35 34 -138 55 -342 69 -88 6 -177 15 -197 21 -20 5
-60 29 -87 53 -54 46 -137 90 -186 100 -16 3 -47 -1 -69 -9z m116 -52 c41 -16
91 -48 133 -86 35 -32 79 -49 135 -53 30 -2 78 -6 105 -9 28 -3 86 -7 130 -10
44 -3 98 -10 120 -15 22 -5 52 -11 67 -15 15 -3 34 -16 43 -28 19 -30 22 -159
4 -212 -13 -36 -22 -44 -99 -82 -47 -22 -114 -51 -150 -63 -228 -78 -252 -88
-286 -121 -41 -39 -41 -52 -4 -199 4 -19 11 -67 15 -106 7 -74 9 -81 37 -102
14 -11 22 -10 50 4 61 32 97 35 142 12 43 -21 116 -89 116 -106 0 -16 -50 -72
-64 -72 -8 0 -13 16 -14 43 -1 34 -8 48 -37 75 -54 50 -76 44 -161 -43 -70
-72 -72 -76 -79 -137 -4 -35 -16 -106 -28 -158 -24 -115 -25 -133 -1 -158 18
-19 121 -92 130 -92 3 0 17 -11 32 -25 15 -14 29 -25 33 -25 3 0 41 -34 84
-75 43 -41 83 -75 90 -75 7 0 32 14 56 31 146 102 193 123 169 79 -6 -12 -10
-38 -8 -58 3 -32 8 -40 41 -56 l38 -18 -81 -55 c-44 -31 -117 -94 -161 -141
-56 -61 -83 -82 -90 -75 -6 6 -14 38 -18 72 -9 72 -32 108 -87 136 -48 24
-103 24 -204 -3 -41 -11 -97 -23 -125 -27 -66 -9 -126 -39 -209 -103 -39 -29
-97 -67 -130 -84 -68 -34 -191 -68 -248 -68 -27 0 -53 -11 -100 -45 -35 -25
-86 -61 -114 -80 -80 -54 -83 -77 -17 -175 25 -39 43 -73 39 -77 -3 -4 -21 -1
-39 5 -51 18 -63 15 -97 -26 l-31 -37 -30 35 c-41 48 -37 41 -106 180 -62 126
-64 147 -13 120 18 -9 25 -8 42 7 48 43 64 126 31 155 -10 8 -100 56 -200 106
-101 51 -193 97 -205 104 -56 34 -158 101 -202 135 -55 43 -175 182 -223 258
-38 60 -76 142 -71 156 2 5 63 -49 135 -121 73 -71 139 -130 147 -130 8 0 16
-4 18 -8 4 -9 85 -58 150 -90 53 -25 66 -22 107 22 14 14 30 26 37 26 13 0 54
-63 54 -84 0 -15 27 -40 53 -50 22 -7 77 45 77 74 0 10 6 23 14 29 11 9 23 4
59 -23 24 -18 53 -37 65 -40 28 -9 68 29 85 79 12 37 15 40 46 38 19 -1 37 -6
40 -11 3 -6 19 -14 34 -17 23 -6 34 -2 59 21 42 41 48 55 38 99 -12 52 -1 63
58 58 38 -4 52 -1 75 17 32 26 34 43 7 101 -11 24 -20 50 -20 56 0 7 21 23 47
35 64 30 73 57 42 122 -24 53 -25 50 26 84 6 4 21 20 33 36 32 42 29 92 -9
144 -17 23 -27 46 -24 52 4 6 24 22 46 35 21 14 46 37 56 51 16 25 16 28 -6
69 -18 34 -35 49 -78 70 -48 23 -54 29 -48 48 18 58 17 78 -9 132 -15 30 -41
66 -58 80 l-30 25 27 37 c16 19 41 69 56 110 33 89 42 100 134 164 39 27 98
74 133 104 70 62 99 68 174 38z"/>
<path d="M2023 2678 c-64 -46 -71 -105 -19 -153 26 -24 100 -40 132 -29 34 12
84 67 84 91 0 92 -119 146 -197 91z m143 -43 c15 -15 23 -32 20 -41 -3 -9 -6
-20 -6 -25 0 -13 -56 -39 -85 -39 -36 0 -82 26 -90 50 -7 23 8 55 33 69 9 6
36 11 60 11 33 0 49 -6 68 -25z"/>
</g>
</svg>
